<svg width="24" height="16" viewBox="0 0 24 16" fill="none" xmlns="http://www.w3.org/2000/svg">
<path d="M23.5 2.50695C23.3641 2.02219 23.0994 1.5833 22.734 1.23695C22.3583 0.879958 21.8978 0.62459 21.396 0.494954C19.518 -4.61042e-05 11.994 -4.59929e-05 11.994 -4.59929e-05C8.85734 -0.0357333 5.72144 0.121229 2.60401 0.469954C2.1022 0.609167 1.64257 0.870241 1.26601 1.22995C0.896007 1.58595 0.628007 2.02495 0.488007 2.50595C0.1517 4.3177 -0.0117011 6.1573 6.83166e-06 7.99995C-0.0119932 9.84095 0.151007 11.68 0.488007 13.494C0.625007 13.973 0.892007 14.41 1.26301 14.763C1.63401 15.116 2.09601 15.371 2.60401 15.506C4.50701 16 11.994 16 11.994 16C15.1347 16.0357 18.2746 15.8787 21.396 15.53C21.8978 15.4003 22.3583 15.145 22.734 14.788C23.104 14.435 23.367 13.996 23.499 13.518C23.8441 11.7069 24.0119 9.86655 24 8.02295C24.026 6.17156 23.8584 4.32252 23.5 2.50595V2.50695ZM9.60201 11.424V4.57695L15.862 8.00095L9.60201 11.424Z" fill="black"/>
</svg>
