<svg width="31" height="39" viewBox="0 0 31 39" fill="none" xmlns="http://www.w3.org/2000/svg">
<path d="M26.75 15C26.75 8.78906 21.7109 3.75 15.5 3.75C9.28906 3.75 4.25 8.78906 4.25 15C4.25 21.2109 9.28906 26.25 15.5 26.25C21.7109 26.25 26.75 21.2109 26.75 15Z" stroke="black" stroke-width="2" stroke-miterlimit="10"/>
<path d="M21.0471 8.8435L14.1799 11.5904C13.7082 11.779 13.2798 12.0615 12.9207 12.4206C12.5615 12.7798 12.279 13.2082 12.0904 13.6798L9.34355 20.547C9.30945 20.6322 9.30111 20.7255 9.31954 20.8154C9.33798 20.9053 9.3824 20.9878 9.44728 21.0527C9.51216 21.1176 9.59465 21.162 9.68454 21.1804C9.77442 21.1988 9.86774 21.1905 9.95293 21.1564L16.8201 18.4095C17.2917 18.2209 17.7201 17.9385 18.0793 17.5793C18.4385 17.2201 18.721 16.7917 18.9096 16.3201L21.6564 9.45288C21.6905 9.3677 21.6989 9.27438 21.6804 9.18449C21.662 9.09461 21.6176 9.01211 21.5527 8.94723C21.4878 8.88235 21.4053 8.83794 21.3155 8.8195C21.2256 8.80106 21.1323 8.80941 21.0471 8.8435ZM15.5 16.4062C15.2219 16.4062 14.95 16.3237 14.7187 16.1692C14.4875 16.0147 14.3072 15.7951 14.2008 15.5381C14.0944 15.2811 14.0665 14.9984 14.1208 14.7256C14.175 14.4528 14.309 14.2022 14.5056 14.0056C14.7023 13.8089 14.9529 13.675 15.2257 13.6207C15.4984 13.5665 15.7812 13.5943 16.0381 13.7007C16.2951 13.8072 16.5147 13.9874 16.6693 14.2187C16.8238 14.4499 16.9062 14.7218 16.9062 15C16.9062 15.3729 16.7581 15.7306 16.4944 15.9943C16.2306 16.258 15.873 16.4062 15.5 16.4062Z" fill="black"/>
<path d="M6.27344 36.3867V37H3.26172V36.3867H6.27344ZM3.41406 31.3125V37H2.66016V31.3125H3.41406ZM5.875 33.7578V34.3711H3.26172V33.7578H5.875ZM6.23438 31.3125V31.9297H3.26172V31.3125H6.23438ZM7.58594 32.7734L8.51172 34.3125L9.44922 32.7734H10.2969L8.91406 34.8594L10.3398 37H9.50391L8.52734 35.4141L7.55078 37H6.71094L8.13281 34.8594L6.75391 32.7734H7.58594ZM11.7891 33.5859V38.625H11.0625V32.7734H11.7266L11.7891 33.5859ZM14.6367 34.8516V34.9336C14.6367 35.2409 14.6003 35.526 14.5273 35.7891C14.4544 36.0495 14.3477 36.276 14.207 36.4688C14.069 36.6615 13.8984 36.8112 13.6953 36.918C13.4922 37.0247 13.2591 37.0781 12.9961 37.0781C12.7279 37.0781 12.4909 37.0339 12.2852 36.9453C12.0794 36.8568 11.9049 36.7279 11.7617 36.5586C11.6185 36.3893 11.5039 36.1862 11.418 35.9492C11.3346 35.7122 11.2773 35.4453 11.2461 35.1484V34.7109C11.2773 34.3984 11.3359 34.1185 11.4219 33.8711C11.5078 33.6237 11.6211 33.4128 11.7617 33.2383C11.9049 33.0612 12.0781 32.9271 12.2812 32.8359C12.4844 32.7422 12.7188 32.6953 12.9844 32.6953C13.25 32.6953 13.4857 32.7474 13.6914 32.8516C13.8971 32.9531 14.0703 33.099 14.2109 33.2891C14.3516 33.4792 14.457 33.707 14.5273 33.9727C14.6003 34.2357 14.6367 34.5286 14.6367 34.8516ZM13.9102 34.9336V34.8516C13.9102 34.6406 13.888 34.4427 13.8438 34.2578C13.7995 34.0703 13.7305 33.9062 13.6367 33.7656C13.5456 33.6224 13.4284 33.5104 13.2852 33.4297C13.1419 33.3464 12.9714 33.3047 12.7734 33.3047C12.5911 33.3047 12.4323 33.3359 12.2969 33.3984C12.1641 33.4609 12.0508 33.5456 11.957 33.6523C11.8633 33.7565 11.7865 33.8763 11.7266 34.0117C11.6693 34.1445 11.6263 34.2826 11.5977 34.4258V35.4375C11.6497 35.6198 11.7227 35.7917 11.8164 35.9531C11.9102 36.112 12.0352 36.2409 12.1914 36.3398C12.3477 36.4362 12.5443 36.4844 12.7812 36.4844C12.9766 36.4844 13.1445 36.444 13.2852 36.3633C13.4284 36.2799 13.5456 36.1667 13.6367 36.0234C13.7305 35.8802 13.7995 35.7161 13.8438 35.5312C13.888 35.3438 13.9102 35.1445 13.9102 34.9336ZM16.3438 31V37H15.6172V31H16.3438ZM17.3125 34.9336V34.8438C17.3125 34.5391 17.3568 34.2565 17.4453 33.9961C17.5339 33.7331 17.6615 33.5052 17.8281 33.3125C17.9948 33.1172 18.1966 32.9661 18.4336 32.8594C18.6706 32.75 18.9362 32.6953 19.2305 32.6953C19.5273 32.6953 19.7943 32.75 20.0312 32.8594C20.2708 32.9661 20.474 33.1172 20.6406 33.3125C20.8099 33.5052 20.9388 33.7331 21.0273 33.9961C21.1159 34.2565 21.1602 34.5391 21.1602 34.8438V34.9336C21.1602 35.2383 21.1159 35.5208 21.0273 35.7812C20.9388 36.0417 20.8099 36.2695 20.6406 36.4648C20.474 36.6576 20.2721 36.8086 20.0352 36.918C19.8008 37.0247 19.5352 37.0781 19.2383 37.0781C18.9414 37.0781 18.6745 37.0247 18.4375 36.918C18.2005 36.8086 17.9974 36.6576 17.8281 36.4648C17.6615 36.2695 17.5339 36.0417 17.4453 35.7812C17.3568 35.5208 17.3125 35.2383 17.3125 34.9336ZM18.0352 34.8438V34.9336C18.0352 35.1445 18.0599 35.3438 18.1094 35.5312C18.1589 35.7161 18.2331 35.8802 18.332 36.0234C18.4336 36.1667 18.5599 36.2799 18.7109 36.3633C18.862 36.444 19.0378 36.4844 19.2383 36.4844C19.4362 36.4844 19.6094 36.444 19.7578 36.3633C19.9089 36.2799 20.0339 36.1667 20.1328 36.0234C20.2318 35.8802 20.306 35.7161 20.3555 35.5312C20.4076 35.3438 20.4336 35.1445 20.4336 34.9336V34.8438C20.4336 34.6354 20.4076 34.4388 20.3555 34.2539C20.306 34.0664 20.2305 33.901 20.1289 33.7578C20.0299 33.612 19.9049 33.4974 19.7539 33.4141C19.6055 33.3307 19.431 33.2891 19.2305 33.2891C19.0326 33.2891 18.8581 33.3307 18.707 33.4141C18.5586 33.4974 18.4336 33.612 18.332 33.7578C18.2331 33.901 18.1589 34.0664 18.1094 34.2539C18.0599 34.4388 18.0352 34.6354 18.0352 34.8438ZM22.7891 33.4375V37H22.0664V32.7734H22.7695L22.7891 33.4375ZM24.1094 32.75L24.1055 33.4219C24.0456 33.4089 23.9883 33.401 23.9336 33.3984C23.8815 33.3932 23.8216 33.3906 23.7539 33.3906C23.5872 33.3906 23.4401 33.4167 23.3125 33.4688C23.1849 33.5208 23.0768 33.5938 22.9883 33.6875C22.8997 33.7812 22.8294 33.8932 22.7773 34.0234C22.7279 34.151 22.6953 34.2917 22.6797 34.4453L22.4766 34.5625C22.4766 34.3073 22.5013 34.0677 22.5508 33.8438C22.6029 33.6198 22.6823 33.4219 22.7891 33.25C22.8958 33.0755 23.0312 32.9401 23.1953 32.8438C23.362 32.7448 23.5599 32.6953 23.7891 32.6953C23.8411 32.6953 23.901 32.7018 23.9688 32.7148C24.0365 32.7253 24.0833 32.737 24.1094 32.75ZM26.4531 37.0781C26.1589 37.0781 25.8919 37.0286 25.6523 36.9297C25.4154 36.8281 25.2109 36.6862 25.0391 36.5039C24.8698 36.3216 24.7396 36.1055 24.6484 35.8555C24.5573 35.6055 24.5117 35.332 24.5117 35.0352V34.8711C24.5117 34.5273 24.5625 34.2214 24.6641 33.9531C24.7656 33.6823 24.9036 33.4531 25.0781 33.2656C25.2526 33.0781 25.4505 32.9362 25.6719 32.8398C25.8932 32.7435 26.1224 32.6953 26.3594 32.6953C26.6615 32.6953 26.9219 32.7474 27.1406 32.8516C27.362 32.9557 27.543 33.1016 27.6836 33.2891C27.8242 33.474 27.9284 33.6927 27.9961 33.9453C28.0638 34.1953 28.0977 34.4688 28.0977 34.7656V35.0898H24.9414V34.5H27.375V34.4453C27.3646 34.2578 27.3255 34.0755 27.2578 33.8984C27.1927 33.7214 27.0885 33.5755 26.9453 33.4609C26.8021 33.3464 26.6068 33.2891 26.3594 33.2891C26.1953 33.2891 26.0443 33.3242 25.9062 33.3945C25.7682 33.4622 25.6497 33.5638 25.5508 33.6992C25.4518 33.8346 25.375 34 25.3203 34.1953C25.2656 34.3906 25.2383 34.6159 25.2383 34.8711V35.0352C25.2383 35.2357 25.2656 35.4245 25.3203 35.6016C25.3776 35.776 25.4596 35.9297 25.5664 36.0625C25.6758 36.1953 25.8073 36.2995 25.9609 36.375C26.1172 36.4505 26.2943 36.4883 26.4922 36.4883C26.7474 36.4883 26.9635 36.4362 27.1406 36.332C27.3177 36.2279 27.4727 36.0885 27.6055 35.9141L28.043 36.2617C27.9518 36.3997 27.8359 36.5312 27.6953 36.6562C27.5547 36.7812 27.3815 36.8828 27.1758 36.9609C26.9727 37.0391 26.7318 37.0781 26.4531 37.0781Z" fill="black"/>
</svg>
