<svg width="25" height="36" viewBox="0 0 25 36" fill="none" xmlns="http://www.w3.org/2000/svg">
<path d="M4.5 6H2.5V20C2.5 21.1 3.4 22 4.5 22H18.5V20H4.5V6ZM20.5 2H8.5C7.4 2 6.5 2.9 6.5 4V16C6.5 17.1 7.4 18 8.5 18H20.5C21.6 18 22.5 17.1 22.5 16V4C22.5 2.9 21.6 2 20.5 2ZM20.5 16H8.5V4H20.5V16ZM12.5 5.5V14.5L18.5 10L12.5 5.5Z" fill="black"/>
<path d="M4.10938 33.3867V34H1.26562V33.3867H4.10938ZM1.41406 28.3125V34H0.660156V28.3125H1.41406ZM5.64844 29.7734V34H4.92188V29.7734H5.64844ZM4.86719 28.6523C4.86719 28.5352 4.90234 28.4362 4.97266 28.3555C5.04557 28.2747 5.15234 28.2344 5.29297 28.2344C5.43099 28.2344 5.53646 28.2747 5.60938 28.3555C5.6849 28.4362 5.72266 28.5352 5.72266 28.6523C5.72266 28.7643 5.6849 28.8607 5.60938 28.9414C5.53646 29.0195 5.43099 29.0586 5.29297 29.0586C5.15234 29.0586 5.04557 29.0195 4.97266 28.9414C4.90234 28.8607 4.86719 28.7643 4.86719 28.6523ZM6.80469 28H7.53125V33.1797L7.46875 34H6.80469V28ZM10.3867 31.8516V31.9336C10.3867 32.2409 10.3503 32.526 10.2773 32.7891C10.2044 33.0495 10.0977 33.276 9.95703 33.4688C9.81641 33.6615 9.64453 33.8112 9.44141 33.918C9.23828 34.0247 9.00521 34.0781 8.74219 34.0781C8.47396 34.0781 8.23828 34.0326 8.03516 33.9414C7.83464 33.8477 7.66536 33.7135 7.52734 33.5391C7.38932 33.3646 7.27865 33.1536 7.19531 32.9062C7.11458 32.6589 7.05859 32.3802 7.02734 32.0703V31.7109C7.05859 31.3984 7.11458 31.1185 7.19531 30.8711C7.27865 30.6237 7.38932 30.4128 7.52734 30.2383C7.66536 30.0612 7.83464 29.9271 8.03516 29.8359C8.23568 29.7422 8.46875 29.6953 8.73438 29.6953C9 29.6953 9.23568 29.7474 9.44141 29.8516C9.64714 29.9531 9.81901 30.099 9.95703 30.2891C10.0977 30.4792 10.2044 30.707 10.2773 30.9727C10.3503 31.2357 10.3867 31.5286 10.3867 31.8516ZM9.66016 31.9336V31.8516C9.66016 31.6406 9.64062 31.4427 9.60156 31.2578C9.5625 31.0703 9.5 30.9062 9.41406 30.7656C9.32812 30.6224 9.21484 30.5104 9.07422 30.4297C8.93359 30.3464 8.76042 30.3047 8.55469 30.3047C8.3724 30.3047 8.21354 30.3359 8.07812 30.3984C7.94531 30.4609 7.83203 30.5456 7.73828 30.6523C7.64453 30.7565 7.56771 30.8763 7.50781 31.0117C7.45052 31.1445 7.40755 31.2826 7.37891 31.4258V32.3672C7.42057 32.5495 7.48828 32.7253 7.58203 32.8945C7.67839 33.0612 7.80599 33.1979 7.96484 33.3047C8.1263 33.4115 8.32552 33.4648 8.5625 33.4648C8.75781 33.4648 8.92448 33.4258 9.0625 33.3477C9.20312 33.2669 9.31641 33.1562 9.40234 33.0156C9.49089 32.875 9.55599 32.7122 9.59766 32.5273C9.63932 32.3424 9.66016 32.1445 9.66016 31.9336ZM12.0234 30.4375V34H11.3008V29.7734H12.0039L12.0234 30.4375ZM13.3438 29.75L13.3398 30.4219C13.2799 30.4089 13.2227 30.401 13.168 30.3984C13.1159 30.3932 13.056 30.3906 12.9883 30.3906C12.8216 30.3906 12.6745 30.4167 12.5469 30.4688C12.4193 30.5208 12.3112 30.5938 12.2227 30.6875C12.1341 30.7812 12.0638 30.8932 12.0117 31.0234C11.9622 31.151 11.9297 31.2917 11.9141 31.4453L11.7109 31.5625C11.7109 31.3073 11.7357 31.0677 11.7852 30.8438C11.8372 30.6198 11.9167 30.4219 12.0234 30.25C12.1302 30.0755 12.2656 29.9401 12.4297 29.8438C12.5964 29.7448 12.7943 29.6953 13.0234 29.6953C13.0755 29.6953 13.1354 29.7018 13.2031 29.7148C13.2708 29.7253 13.3177 29.737 13.3438 29.75ZM16.3477 33.2773V31.1016C16.3477 30.9349 16.3138 30.7904 16.2461 30.668C16.181 30.543 16.082 30.4466 15.9492 30.3789C15.8164 30.3112 15.6523 30.2773 15.457 30.2773C15.2747 30.2773 15.1146 30.3086 14.9766 30.3711C14.8411 30.4336 14.7344 30.5156 14.6562 30.6172C14.5807 30.7188 14.543 30.8281 14.543 30.9453H13.8203C13.8203 30.7943 13.8594 30.6445 13.9375 30.4961C14.0156 30.3477 14.1276 30.2135 14.2734 30.0938C14.4219 29.9714 14.599 29.875 14.8047 29.8047C15.013 29.7318 15.2448 29.6953 15.5 29.6953C15.8073 29.6953 16.0781 29.7474 16.3125 29.8516C16.5495 29.9557 16.7344 30.1133 16.8672 30.3242C17.0026 30.5326 17.0703 30.7943 17.0703 31.1094V33.0781C17.0703 33.2188 17.082 33.3685 17.1055 33.5273C17.1315 33.6862 17.1693 33.8229 17.2188 33.9375V34H16.4648C16.4284 33.9167 16.3997 33.806 16.3789 33.668C16.3581 33.5273 16.3477 33.3971 16.3477 33.2773ZM16.4727 31.4375L16.4805 31.9453H15.75C15.5443 31.9453 15.3607 31.9622 15.1992 31.9961C15.0378 32.0273 14.9023 32.0755 14.793 32.1406C14.6836 32.2057 14.6003 32.2878 14.543 32.3867C14.4857 32.4831 14.457 32.5964 14.457 32.7266C14.457 32.8594 14.487 32.9805 14.5469 33.0898C14.6068 33.1992 14.6966 33.2865 14.8164 33.3516C14.9388 33.4141 15.0885 33.4453 15.2656 33.4453C15.487 33.4453 15.6823 33.3984 15.8516 33.3047C16.0208 33.2109 16.1549 33.0964 16.2539 32.9609C16.3555 32.8255 16.4102 32.694 16.418 32.5664L16.7266 32.9141C16.7083 33.0234 16.6589 33.1445 16.5781 33.2773C16.4974 33.4102 16.3893 33.5378 16.2539 33.6602C16.1211 33.7799 15.9622 33.8802 15.7773 33.9609C15.5951 34.0391 15.3893 34.0781 15.1602 34.0781C14.8737 34.0781 14.6224 34.0221 14.4062 33.9102C14.1927 33.7982 14.026 33.6484 13.9062 33.4609C13.7891 33.2708 13.7305 33.0586 13.7305 32.8242C13.7305 32.5977 13.7747 32.3984 13.8633 32.2266C13.9518 32.0521 14.0794 31.9076 14.2461 31.793C14.4128 31.6758 14.6133 31.5872 14.8477 31.5273C15.082 31.4674 15.3438 31.4375 15.6328 31.4375H16.4727ZM18.9297 30.4375V34H18.207V29.7734H18.9102L18.9297 30.4375ZM20.25 29.75L20.2461 30.4219C20.1862 30.4089 20.1289 30.401 20.0742 30.3984C20.0221 30.3932 19.9622 30.3906 19.8945 30.3906C19.7279 30.3906 19.5807 30.4167 19.4531 30.4688C19.3255 30.5208 19.2174 30.5938 19.1289 30.6875C19.0404 30.7812 18.9701 30.8932 18.918 31.0234C18.8685 31.151 18.8359 31.2917 18.8203 31.4453L18.6172 31.5625C18.6172 31.3073 18.6419 31.0677 18.6914 30.8438C18.7435 30.6198 18.8229 30.4219 18.9297 30.25C19.0365 30.0755 19.1719 29.9401 19.3359 29.8438C19.5026 29.7448 19.7005 29.6953 19.9297 29.6953C19.9818 29.6953 20.0417 29.7018 20.1094 29.7148C20.1771 29.7253 20.224 29.737 20.25 29.75ZM22.1758 33.5625L23.3516 29.7734H24.125L22.4297 34.6523C22.3906 34.7565 22.3385 34.8685 22.2734 34.9883C22.2109 35.1107 22.1302 35.2266 22.0312 35.3359C21.9323 35.4453 21.8125 35.5339 21.6719 35.6016C21.5339 35.6719 21.3685 35.707 21.1758 35.707C21.1185 35.707 21.0456 35.6992 20.957 35.6836C20.8685 35.668 20.806 35.6549 20.7695 35.6445L20.7656 35.0586C20.7865 35.0612 20.819 35.0638 20.8633 35.0664C20.9102 35.0716 20.9427 35.0742 20.9609 35.0742C21.125 35.0742 21.2643 35.0521 21.3789 35.0078C21.4935 34.9661 21.5898 34.8945 21.668 34.793C21.7487 34.694 21.8177 34.5573 21.875 34.3828L22.1758 33.5625ZM21.3125 29.7734L22.4102 33.0547L22.5977 33.8164L22.0781 34.082L20.5234 29.7734H21.3125Z" fill="black"/>
</svg>
