<svg width="40" height="40" viewBox="0 0 40 40" fill="none" xmlns="http://www.w3.org/2000/svg">
<ellipse cx="20" cy="20" rx="20" ry="20" fill="#EBEBEB"/>
<path d="M26.25 20C26.4312 20 26.6063 20.0656 26.7429 20.1848C26.8795 20.3039 26.9684 20.4684 26.993 20.648L27 20.75V21.25C27.0002 22.9536 26.3561 24.5942 25.1971 25.8428C24.0381 27.0914 22.4499 27.8556 20.751 27.982L20.75 30.25C20.7499 30.44 20.6778 30.6229 20.548 30.7618C20.4183 30.9006 20.2407 30.9851 20.0511 30.998C19.8615 31.011 19.6741 30.9515 19.5267 30.8316C19.3793 30.7117 19.2829 30.5402 19.257 30.352L19.25 30.25V27.982C17.5915 27.8588 16.0369 27.1278 14.8842 25.929C13.7315 24.7302 13.062 23.148 13.004 21.486L13 21.25V20.75C13.0001 20.56 13.0722 20.3771 13.202 20.2382C13.3317 20.0994 13.5093 20.0149 13.6989 20.002C13.8885 19.989 14.0759 20.0485 14.2233 20.1684C14.3707 20.2883 14.4671 20.4598 14.493 20.648L14.5 20.75V21.25C14.4999 22.6051 15.0237 23.9077 15.9619 24.8854C16.9002 25.8632 18.1801 26.4402 19.534 26.496L19.75 26.5H20.25C21.6051 26.5001 22.9077 25.9763 23.8854 25.0381C24.8632 24.0998 25.4402 22.8199 25.496 21.466L25.5 21.25V20.75C25.5 20.5511 25.579 20.3603 25.7197 20.2197C25.8603 20.079 26.0511 20 26.25 20ZM20 11C21.0609 11 22.0783 11.4214 22.8284 12.1716C23.5786 12.9217 24 13.9391 24 15V21C24 22.0609 23.5786 23.0783 22.8284 23.8284C22.0783 24.5786 21.0609 25 20 25C18.9391 25 17.9217 24.5786 17.1716 23.8284C16.4214 23.0783 16 22.0609 16 21V15C16 13.9391 16.4214 12.9217 17.1716 12.1716C17.9217 11.4214 18.9391 11 20 11Z" fill="black"/>
</svg>
