<svg width="49" height="34" viewBox="0 0 49 34" fill="none" xmlns="http://www.w3.org/2000/svg">
<path d="M34.3056 6.94446H14.6944C14.3482 6.94446 14.0161 7.08201 13.7713 7.32685C13.5264 7.57169 13.3889 7.90376 13.3889 8.25001V20.9167C13.3889 21.2629 13.5264 21.595 13.7713 21.8398C14.0161 22.0847 14.3482 22.2222 14.6944 22.2222H34.3056C34.6518 22.2222 34.9839 22.0847 35.2287 21.8398C35.4736 21.595 35.6111 21.2629 35.6111 20.9167V8.25001C35.6111 7.90376 35.4736 7.57169 35.2287 7.32685C34.9839 7.08201 34.6518 6.94446 34.3056 6.94446ZM34.2222 20.8333H14.7778V8.33335H34.2222V20.8333Z" fill="black"/>
<path d="M32.9306 2.08336C32.9306 1.89918 32.8574 1.72255 32.7272 1.59231C32.5969 1.46208 32.4203 1.38892 32.2361 1.38892H16.9583C16.7742 1.38892 16.5975 1.46208 16.4673 1.59231C16.3371 1.72255 16.2639 1.89918 16.2639 2.08336V2.7778H32.9306V2.08336Z" fill="black"/>
<path d="M34.3056 4.86107C34.3056 4.67689 34.2324 4.50026 34.1022 4.37002C33.9719 4.23979 33.7953 4.16663 33.6111 4.16663H15.5556C15.3714 4.16663 15.1947 4.23979 15.0645 4.37002C14.9343 4.50026 14.8611 4.67689 14.8611 4.86107V5.55551H34.3056V4.86107Z" fill="black"/>
<path d="M20.9028 18.6042C21.0952 18.729 21.3192 18.7964 21.5486 18.7986C21.7139 18.7983 21.8772 18.7627 22.0278 18.6945L28.8125 15.6667C29.0222 15.5756 29.2008 15.4251 29.3262 15.2339C29.4516 15.0427 29.5184 14.819 29.5184 14.5903C29.5184 14.3616 29.4516 14.1379 29.3262 13.9467C29.2008 13.7555 29.0222 13.6051 28.8125 13.5139L22.0278 10.4861C21.8482 10.4064 21.6516 10.3727 21.4558 10.3882C21.26 10.4036 21.0711 10.4677 20.9062 10.5746C20.7414 10.6815 20.6059 10.8278 20.5119 11.0003C20.4179 11.1728 20.3685 11.3661 20.3681 11.5625V17.6181C20.3684 17.8139 20.4175 18.0066 20.5108 18.1787C20.6042 18.3508 20.7389 18.4971 20.9028 18.6042ZM21.3403 11.5625C21.3401 11.5276 21.3489 11.4933 21.366 11.4629C21.383 11.4324 21.4076 11.407 21.4375 11.3889C21.4739 11.3789 21.5123 11.3789 21.5486 11.3889C21.576 11.3827 21.6045 11.3827 21.6319 11.3889L28.4167 14.4098C28.4549 14.4254 28.4875 14.4525 28.5098 14.4873C28.5322 14.522 28.5433 14.5629 28.5417 14.6042C28.5429 14.6446 28.5315 14.6843 28.5091 14.7179C28.4867 14.7515 28.4544 14.7773 28.4167 14.7917L21.6319 17.8195C21.6024 17.8365 21.5689 17.8455 21.5347 17.8455C21.5006 17.8455 21.4671 17.8365 21.4375 17.8195C21.4085 17.8005 21.3846 17.7748 21.3676 17.7446C21.3507 17.7143 21.3413 17.6805 21.3403 17.6459V11.5625Z" fill="black"/>
<path d="M3.69141 30.5625C3.69141 30.4297 3.67057 30.3125 3.62891 30.2109C3.58984 30.1068 3.51953 30.013 3.41797 29.9297C3.31901 29.8464 3.18099 29.7669 3.00391 29.6914C2.82943 29.6159 2.60807 29.5391 2.33984 29.4609C2.05859 29.3776 1.80469 29.2852 1.57812 29.1836C1.35156 29.0794 1.15755 28.9609 0.996094 28.8281C0.834635 28.6953 0.710938 28.543 0.625 28.3711C0.539062 28.1992 0.496094 28.0026 0.496094 27.7812C0.496094 27.5599 0.541667 27.3555 0.632812 27.168C0.723958 26.9805 0.854167 26.8177 1.02344 26.6797C1.19531 26.5391 1.39974 26.4297 1.63672 26.3516C1.8737 26.2734 2.13802 26.2344 2.42969 26.2344C2.85677 26.2344 3.21875 26.3164 3.51562 26.4805C3.8151 26.6419 4.04297 26.8542 4.19922 27.1172C4.35547 27.3776 4.43359 27.6562 4.43359 27.9531H3.68359C3.68359 27.7396 3.63802 27.5508 3.54688 27.3867C3.45573 27.2201 3.31771 27.0898 3.13281 26.9961C2.94792 26.8997 2.71354 26.8516 2.42969 26.8516C2.16146 26.8516 1.9401 26.8919 1.76562 26.9727C1.59115 27.0534 1.46094 27.1628 1.375 27.3008C1.29167 27.4388 1.25 27.5964 1.25 27.7734C1.25 27.8932 1.27474 28.0026 1.32422 28.1016C1.3763 28.1979 1.45573 28.2878 1.5625 28.3711C1.67188 28.4544 1.8099 28.5312 1.97656 28.6016C2.14583 28.6719 2.34766 28.7396 2.58203 28.8047C2.90495 28.8958 3.18359 28.9974 3.41797 29.1094C3.65234 29.2214 3.84505 29.3477 3.99609 29.4883C4.14974 29.6263 4.26302 29.7839 4.33594 29.9609C4.41146 30.1354 4.44922 30.3333 4.44922 30.5547C4.44922 30.7865 4.40234 30.9961 4.30859 31.1836C4.21484 31.3711 4.08073 31.5312 3.90625 31.6641C3.73177 31.7969 3.52214 31.8997 3.27734 31.9727C3.03516 32.043 2.76432 32.0781 2.46484 32.0781C2.20182 32.0781 1.94271 32.0417 1.6875 31.9688C1.4349 31.8958 1.20443 31.7865 0.996094 31.6406C0.790365 31.4948 0.625 31.3151 0.5 31.1016C0.377604 30.8854 0.316406 30.6354 0.316406 30.3516H1.06641C1.06641 30.5469 1.10417 30.7148 1.17969 30.8555C1.25521 30.9935 1.35807 31.1081 1.48828 31.1992C1.62109 31.2904 1.77083 31.3581 1.9375 31.4023C2.10677 31.444 2.28255 31.4648 2.46484 31.4648C2.72786 31.4648 2.95052 31.4284 3.13281 31.3555C3.3151 31.2826 3.45312 31.1784 3.54688 31.043C3.64323 30.9076 3.69141 30.7474 3.69141 30.5625ZM7.88672 31.0234V27.7734H8.61328V32H7.92188L7.88672 31.0234ZM8.02344 30.1328L8.32422 30.125C8.32422 30.4062 8.29427 30.6667 8.23438 30.9062C8.17708 31.1432 8.08333 31.349 7.95312 31.5234C7.82292 31.6979 7.65234 31.8346 7.44141 31.9336C7.23047 32.0299 6.97396 32.0781 6.67188 32.0781C6.46615 32.0781 6.27734 32.0482 6.10547 31.9883C5.9362 31.9284 5.79036 31.8359 5.66797 31.7109C5.54557 31.5859 5.45052 31.4232 5.38281 31.2227C5.31771 31.0221 5.28516 30.7812 5.28516 30.5V27.7734H6.00781V30.5078C6.00781 30.6979 6.02865 30.8555 6.07031 30.9805C6.11458 31.1029 6.17318 31.2005 6.24609 31.2734C6.32161 31.3438 6.40495 31.3932 6.49609 31.4219C6.58984 31.4505 6.6862 31.4648 6.78516 31.4648C7.09245 31.4648 7.33594 31.4062 7.51562 31.2891C7.69531 31.1693 7.82422 31.0091 7.90234 30.8086C7.98307 30.6055 8.02344 30.3802 8.02344 30.1328ZM9.71094 26H10.4375V31.1797L10.375 32H9.71094V26ZM13.293 29.8516V29.9336C13.293 30.2409 13.2565 30.526 13.1836 30.7891C13.1107 31.0495 13.0039 31.276 12.8633 31.4688C12.7227 31.6615 12.5508 31.8112 12.3477 31.918C12.1445 32.0247 11.9115 32.0781 11.6484 32.0781C11.3802 32.0781 11.1445 32.0326 10.9414 31.9414C10.7409 31.8477 10.5716 31.7135 10.4336 31.5391C10.2956 31.3646 10.1849 31.1536 10.1016 30.9062C10.0208 30.6589 9.96484 30.3802 9.93359 30.0703V29.7109C9.96484 29.3984 10.0208 29.1185 10.1016 28.8711C10.1849 28.6237 10.2956 28.4128 10.4336 28.2383C10.5716 28.0612 10.7409 27.9271 10.9414 27.8359C11.1419 27.7422 11.375 27.6953 11.6406 27.6953C11.9062 27.6953 12.1419 27.7474 12.3477 27.8516C12.5534 27.9531 12.7253 28.099 12.8633 28.2891C13.0039 28.4792 13.1107 28.707 13.1836 28.9727C13.2565 29.2357 13.293 29.5286 13.293 29.8516ZM12.5664 29.9336V29.8516C12.5664 29.6406 12.5469 29.4427 12.5078 29.2578C12.4688 29.0703 12.4062 28.9062 12.3203 28.7656C12.2344 28.6224 12.1211 28.5104 11.9805 28.4297C11.8398 28.3464 11.6667 28.3047 11.4609 28.3047C11.2786 28.3047 11.1198 28.3359 10.9844 28.3984C10.8516 28.4609 10.7383 28.5456 10.6445 28.6523C10.5508 28.7565 10.474 28.8763 10.4141 29.0117C10.3568 29.1445 10.3138 29.2826 10.2852 29.4258V30.3672C10.3268 30.5495 10.3945 30.7253 10.4883 30.8945C10.5846 31.0612 10.7122 31.1979 10.8711 31.3047C11.0326 31.4115 11.2318 31.4648 11.4688 31.4648C11.6641 31.4648 11.8307 31.4258 11.9688 31.3477C12.1094 31.2669 12.2227 31.1562 12.3086 31.0156C12.3971 30.875 12.4622 30.7122 12.5039 30.5273C12.5456 30.3424 12.5664 30.1445 12.5664 29.9336ZM16.668 30.8789C16.668 30.7747 16.6445 30.6784 16.5977 30.5898C16.5534 30.4987 16.4609 30.4167 16.3203 30.3438C16.1823 30.2682 15.974 30.2031 15.6953 30.1484C15.4609 30.099 15.2487 30.0404 15.0586 29.9727C14.8711 29.9049 14.7109 29.8229 14.5781 29.7266C14.4479 29.6302 14.3477 29.5169 14.2773 29.3867C14.207 29.2565 14.1719 29.1042 14.1719 28.9297C14.1719 28.763 14.2083 28.6055 14.2812 28.457C14.3568 28.3086 14.4622 28.1771 14.5977 28.0625C14.7357 27.9479 14.901 27.8581 15.0938 27.793C15.2865 27.7279 15.5013 27.6953 15.7383 27.6953C16.0768 27.6953 16.3659 27.7552 16.6055 27.875C16.8451 27.9948 17.0286 28.1549 17.1562 28.3555C17.2839 28.5534 17.3477 28.7734 17.3477 29.0156H16.625C16.625 28.8984 16.5898 28.7852 16.5195 28.6758C16.4518 28.5638 16.3516 28.4714 16.2188 28.3984C16.0885 28.3255 15.9284 28.2891 15.7383 28.2891C15.5378 28.2891 15.375 28.3203 15.25 28.3828C15.1276 28.4427 15.0378 28.5195 14.9805 28.6133C14.9258 28.707 14.8984 28.806 14.8984 28.9102C14.8984 28.9883 14.9115 29.0586 14.9375 29.1211C14.9661 29.181 15.0156 29.237 15.0859 29.2891C15.1562 29.3385 15.2552 29.3854 15.3828 29.4297C15.5104 29.474 15.6732 29.5182 15.8711 29.5625C16.2174 29.6406 16.5026 29.7344 16.7266 29.8438C16.9505 29.9531 17.1172 30.0872 17.2266 30.2461C17.3359 30.4049 17.3906 30.5977 17.3906 30.8242C17.3906 31.0091 17.3516 31.1784 17.2734 31.332C17.1979 31.4857 17.0872 31.6185 16.9414 31.7305C16.7982 31.8398 16.6263 31.9258 16.4258 31.9883C16.2279 32.0482 16.0052 32.0781 15.7578 32.0781C15.3854 32.0781 15.0703 32.0117 14.8125 31.8789C14.5547 31.7461 14.3594 31.5742 14.2266 31.3633C14.0938 31.1523 14.0273 30.9297 14.0273 30.6953H14.7539C14.7643 30.8932 14.8216 31.0508 14.9258 31.168C15.0299 31.2826 15.1576 31.3646 15.3086 31.4141C15.4596 31.4609 15.6094 31.4844 15.7578 31.4844C15.9557 31.4844 16.1211 31.4583 16.2539 31.4062C16.3893 31.3542 16.4922 31.2826 16.5625 31.1914C16.6328 31.1003 16.668 30.9961 16.668 30.8789ZM20.0312 31.4844C20.2031 31.4844 20.362 31.4492 20.5078 31.3789C20.6536 31.3086 20.7734 31.2122 20.8672 31.0898C20.9609 30.9648 21.0143 30.8229 21.0273 30.6641H21.7148C21.7018 30.9141 21.6172 31.1471 21.4609 31.3633C21.3073 31.5768 21.1055 31.75 20.8555 31.8828C20.6055 32.013 20.3307 32.0781 20.0312 32.0781C19.7135 32.0781 19.4362 32.0221 19.1992 31.9102C18.9648 31.7982 18.7695 31.6445 18.6133 31.4492C18.4596 31.2539 18.3438 31.0299 18.2656 30.7773C18.1901 30.5221 18.1523 30.2526 18.1523 29.9688V29.8047C18.1523 29.5208 18.1901 29.2526 18.2656 29C18.3438 28.7448 18.4596 28.5195 18.6133 28.3242C18.7695 28.1289 18.9648 27.9753 19.1992 27.8633C19.4362 27.7513 19.7135 27.6953 20.0312 27.6953C20.362 27.6953 20.651 27.763 20.8984 27.8984C21.1458 28.0312 21.3398 28.2135 21.4805 28.4453C21.6237 28.6745 21.7018 28.9349 21.7148 29.2266H21.0273C21.0143 29.0521 20.9648 28.8945 20.8789 28.7539C20.7956 28.6133 20.681 28.5013 20.5352 28.418C20.3919 28.332 20.224 28.2891 20.0312 28.2891C19.8099 28.2891 19.6237 28.3333 19.4727 28.4219C19.3242 28.5078 19.2057 28.625 19.1172 28.7734C19.0312 28.9193 18.9688 29.082 18.9297 29.2617C18.8932 29.4388 18.875 29.6198 18.875 29.8047V29.9688C18.875 30.1536 18.8932 30.3359 18.9297 30.5156C18.9661 30.6953 19.0273 30.8581 19.1133 31.0039C19.2018 31.1497 19.3203 31.2669 19.4688 31.3555C19.6198 31.4414 19.8073 31.4844 20.0312 31.4844ZM23.25 28.4375V32H22.5273V27.7734H23.2305L23.25 28.4375ZM24.5703 27.75L24.5664 28.4219C24.5065 28.4089 24.4492 28.401 24.3945 28.3984C24.3424 28.3932 24.2826 28.3906 24.2148 28.3906C24.0482 28.3906 23.901 28.4167 23.7734 28.4688C23.6458 28.5208 23.5378 28.5938 23.4492 28.6875C23.3607 28.7812 23.2904 28.8932 23.2383 29.0234C23.1888 29.151 23.1562 29.2917 23.1406 29.4453L22.9375 29.5625C22.9375 29.3073 22.9622 29.0677 23.0117 28.8438C23.0638 28.6198 23.1432 28.4219 23.25 28.25C23.3568 28.0755 23.4922 27.9401 23.6562 27.8438C23.8229 27.7448 24.0208 27.6953 24.25 27.6953C24.3021 27.6953 24.362 27.7018 24.4297 27.7148C24.4974 27.7253 24.5443 27.737 24.5703 27.75ZM26.0234 27.7734V32H25.2969V27.7734H26.0234ZM25.2422 26.6523C25.2422 26.5352 25.2773 26.4362 25.3477 26.3555C25.4206 26.2747 25.5273 26.2344 25.668 26.2344C25.806 26.2344 25.9115 26.2747 25.9844 26.3555C26.0599 26.4362 26.0977 26.5352 26.0977 26.6523C26.0977 26.7643 26.0599 26.8607 25.9844 26.9414C25.9115 27.0195 25.806 27.0586 25.668 27.0586C25.5273 27.0586 25.4206 27.0195 25.3477 26.9414C25.2773 26.8607 25.2422 26.7643 25.2422 26.6523ZM27.9062 28.5859V33.625H27.1797V27.7734H27.8438L27.9062 28.5859ZM30.7539 29.8516V29.9336C30.7539 30.2409 30.7174 30.526 30.6445 30.7891C30.5716 31.0495 30.4648 31.276 30.3242 31.4688C30.1862 31.6615 30.0156 31.8112 29.8125 31.918C29.6094 32.0247 29.3763 32.0781 29.1133 32.0781C28.8451 32.0781 28.6081 32.0339 28.4023 31.9453C28.1966 31.8568 28.0221 31.7279 27.8789 31.5586C27.7357 31.3893 27.6211 31.1862 27.5352 30.9492C27.4518 30.7122 27.3945 30.4453 27.3633 30.1484V29.7109C27.3945 29.3984 27.4531 29.1185 27.5391 28.8711C27.625 28.6237 27.7383 28.4128 27.8789 28.2383C28.0221 28.0612 28.1953 27.9271 28.3984 27.8359C28.6016 27.7422 28.8359 27.6953 29.1016 27.6953C29.3672 27.6953 29.6029 27.7474 29.8086 27.8516C30.0143 27.9531 30.1875 28.099 30.3281 28.2891C30.4688 28.4792 30.5742 28.707 30.6445 28.9727C30.7174 29.2357 30.7539 29.5286 30.7539 29.8516ZM30.0273 29.9336V29.8516C30.0273 29.6406 30.0052 29.4427 29.9609 29.2578C29.9167 29.0703 29.8477 28.9062 29.7539 28.7656C29.6628 28.6224 29.5456 28.5104 29.4023 28.4297C29.2591 28.3464 29.0885 28.3047 28.8906 28.3047C28.7083 28.3047 28.5495 28.3359 28.4141 28.3984C28.2812 28.4609 28.168 28.5456 28.0742 28.6523C27.9805 28.7565 27.9036 28.8763 27.8438 29.0117C27.7865 29.1445 27.7435 29.2826 27.7148 29.4258V30.4375C27.7669 30.6198 27.8398 30.7917 27.9336 30.9531C28.0273 31.112 28.1523 31.2409 28.3086 31.3398C28.4648 31.4362 28.6615 31.4844 28.8984 31.4844C29.0938 31.4844 29.2617 31.444 29.4023 31.3633C29.5456 31.2799 29.6628 31.1667 29.7539 31.0234C29.8477 30.8802 29.9167 30.7161 29.9609 30.5312C30.0052 30.3438 30.0273 30.1445 30.0273 29.9336ZM33.4453 27.7734V28.3281H31.1602V27.7734H33.4453ZM31.9336 26.7461H32.6562V30.9531C32.6562 31.0964 32.6784 31.2044 32.7227 31.2773C32.7669 31.3503 32.8242 31.3984 32.8945 31.4219C32.9648 31.4453 33.0404 31.457 33.1211 31.457C33.181 31.457 33.2435 31.4518 33.3086 31.4414C33.3763 31.4284 33.4271 31.418 33.4609 31.4102L33.4648 32C33.4076 32.0182 33.332 32.0352 33.2383 32.0508C33.1471 32.069 33.0365 32.0781 32.9062 32.0781C32.7292 32.0781 32.5664 32.043 32.418 31.9727C32.2695 31.9023 32.151 31.7852 32.0625 31.6211C31.9766 31.4544 31.9336 31.2305 31.9336 30.9492V26.7461ZM35.0781 27.7734V32H34.3516V27.7734H35.0781ZM34.2969 26.6523C34.2969 26.5352 34.332 26.4362 34.4023 26.3555C34.4753 26.2747 34.582 26.2344 34.7227 26.2344C34.8607 26.2344 34.9661 26.2747 35.0391 26.3555C35.1146 26.4362 35.1523 26.5352 35.1523 26.6523C35.1523 26.7643 35.1146 26.8607 35.0391 26.9414C34.9661 27.0195 34.8607 27.0586 34.7227 27.0586C34.582 27.0586 34.4753 27.0195 34.4023 26.9414C34.332 26.8607 34.2969 26.7643 34.2969 26.6523ZM36.0469 29.9336V29.8438C36.0469 29.5391 36.0911 29.2565 36.1797 28.9961C36.2682 28.7331 36.3958 28.5052 36.5625 28.3125C36.7292 28.1172 36.931 27.9661 37.168 27.8594C37.4049 27.75 37.6706 27.6953 37.9648 27.6953C38.2617 27.6953 38.5286 27.75 38.7656 27.8594C39.0052 27.9661 39.2083 28.1172 39.375 28.3125C39.5443 28.5052 39.6732 28.7331 39.7617 28.9961C39.8503 29.2565 39.8945 29.5391 39.8945 29.8438V29.9336C39.8945 30.2383 39.8503 30.5208 39.7617 30.7812C39.6732 31.0417 39.5443 31.2695 39.375 31.4648C39.2083 31.6576 39.0065 31.8086 38.7695 31.918C38.5352 32.0247 38.2695 32.0781 37.9727 32.0781C37.6758 32.0781 37.4089 32.0247 37.1719 31.918C36.9349 31.8086 36.7318 31.6576 36.5625 31.4648C36.3958 31.2695 36.2682 31.0417 36.1797 30.7812C36.0911 30.5208 36.0469 30.2383 36.0469 29.9336ZM36.7695 29.8438V29.9336C36.7695 30.1445 36.7943 30.3438 36.8438 30.5312C36.8932 30.7161 36.9674 30.8802 37.0664 31.0234C37.168 31.1667 37.2943 31.2799 37.4453 31.3633C37.5964 31.444 37.7721 31.4844 37.9727 31.4844C38.1706 31.4844 38.3438 31.444 38.4922 31.3633C38.6432 31.2799 38.7682 31.1667 38.8672 31.0234C38.9661 30.8802 39.0404 30.7161 39.0898 30.5312C39.1419 30.3438 39.168 30.1445 39.168 29.9336V29.8438C39.168 29.6354 39.1419 29.4388 39.0898 29.2539C39.0404 29.0664 38.9648 28.901 38.8633 28.7578C38.7643 28.612 38.6393 28.4974 38.4883 28.4141C38.3398 28.3307 38.1654 28.2891 37.9648 28.2891C37.7669 28.2891 37.5924 28.3307 37.4414 28.4141C37.293 28.4974 37.168 28.612 37.0664 28.7578C36.9674 28.901 36.8932 29.0664 36.8438 29.2539C36.7943 29.4388 36.7695 29.6354 36.7695 29.8438ZM41.5234 28.6758V32H40.8008V27.7734H41.4844L41.5234 28.6758ZM41.3516 29.7266L41.0508 29.7148C41.0534 29.4258 41.0964 29.1589 41.1797 28.9141C41.263 28.6667 41.3802 28.4518 41.5312 28.2695C41.6823 28.0872 41.862 27.9466 42.0703 27.8477C42.2812 27.7461 42.5143 27.6953 42.7695 27.6953C42.9779 27.6953 43.1654 27.724 43.332 27.7812C43.4987 27.8359 43.6406 27.9245 43.7578 28.0469C43.8776 28.1693 43.9688 28.3281 44.0312 28.5234C44.0938 28.7161 44.125 28.9518 44.125 29.2305V32H43.3984V29.2227C43.3984 29.0013 43.3659 28.8242 43.3008 28.6914C43.2357 28.556 43.1406 28.4583 43.0156 28.3984C42.8906 28.3359 42.737 28.3047 42.5547 28.3047C42.375 28.3047 42.2109 28.3424 42.0625 28.418C41.9167 28.4935 41.7904 28.5977 41.6836 28.7305C41.5794 28.8633 41.4974 29.0156 41.4375 29.1875C41.3802 29.3568 41.3516 29.5365 41.3516 29.7266ZM47.6836 30.8789C47.6836 30.7747 47.6602 30.6784 47.6133 30.5898C47.569 30.4987 47.4766 30.4167 47.3359 30.3438C47.1979 30.2682 46.9896 30.2031 46.7109 30.1484C46.4766 30.099 46.2643 30.0404 46.0742 29.9727C45.8867 29.9049 45.7266 29.8229 45.5938 29.7266C45.4635 29.6302 45.3633 29.5169 45.293 29.3867C45.2227 29.2565 45.1875 29.1042 45.1875 28.9297C45.1875 28.763 45.224 28.6055 45.2969 28.457C45.3724 28.3086 45.4779 28.1771 45.6133 28.0625C45.7513 27.9479 45.9167 27.8581 46.1094 27.793C46.3021 27.7279 46.5169 27.6953 46.7539 27.6953C47.0924 27.6953 47.3815 27.7552 47.6211 27.875C47.8607 27.9948 48.0443 28.1549 48.1719 28.3555C48.2995 28.5534 48.3633 28.7734 48.3633 29.0156H47.6406C47.6406 28.8984 47.6055 28.7852 47.5352 28.6758C47.4674 28.5638 47.3672 28.4714 47.2344 28.3984C47.1042 28.3255 46.944 28.2891 46.7539 28.2891C46.5534 28.2891 46.3906 28.3203 46.2656 28.3828C46.1432 28.4427 46.0534 28.5195 45.9961 28.6133C45.9414 28.707 45.9141 28.806 45.9141 28.9102C45.9141 28.9883 45.9271 29.0586 45.9531 29.1211C45.9818 29.181 46.0312 29.237 46.1016 29.2891C46.1719 29.3385 46.2708 29.3854 46.3984 29.4297C46.526 29.474 46.6888 29.5182 46.8867 29.5625C47.2331 29.6406 47.5182 29.7344 47.7422 29.8438C47.9661 29.9531 48.1328 30.0872 48.2422 30.2461C48.3516 30.4049 48.4062 30.5977 48.4062 30.8242C48.4062 31.0091 48.3672 31.1784 48.2891 31.332C48.2135 31.4857 48.1029 31.6185 47.957 31.7305C47.8138 31.8398 47.6419 31.9258 47.4414 31.9883C47.2435 32.0482 47.0208 32.0781 46.7734 32.0781C46.401 32.0781 46.0859 32.0117 45.8281 31.8789C45.5703 31.7461 45.375 31.5742 45.2422 31.3633C45.1094 31.1523 45.043 30.9297 45.043 30.6953H45.7695C45.7799 30.8932 45.8372 31.0508 45.9414 31.168C46.0456 31.2826 46.1732 31.3646 46.3242 31.4141C46.4753 31.4609 46.625 31.4844 46.7734 31.4844C46.9714 31.4844 47.1367 31.4583 47.2695 31.4062C47.4049 31.3542 47.5078 31.2826 47.5781 31.1914C47.6484 31.1003 47.6836 30.9961 47.6836 30.8789Z" fill="black"/>
</svg>
